<svg xmlns="http://www.w3.org/2000/svg" xmlns:xlink="http://www.w3.org/1999/xlink" width="500" zoomAndPan="magnify" viewBox="0 0 375 374.999991" height="500" preserveAspectRatio="xMidYMid meet" version="1.0"><defs><clipPath id="b8a1703706"><path d="M 237.019531 69.65625 L 355.203125 69.65625 L 355.203125 298 L 237.019531 298 Z M 237.019531 69.65625 " clip-rule="nonzero"/></clipPath><clipPath id="2e60362aeb"><path d="M 36 75 L 235 75 L 235 315 L 36 315 Z M 36 75 " clip-rule="nonzero"/></clipPath><clipPath id="62a17c7c4d"><path d="M 269.460938 199.960938 L 72.472656 314.882812 L -22.445312 152.1875 L 174.546875 37.265625 Z M 269.460938 199.960938 " clip-rule="nonzero"/></clipPath><clipPath id="7ef52a9423"><path d="M 387.136719 401.667969 L 49.78125 598.480469 L -162.851562 234.007812 L 174.503906 37.195312 Z M 387.136719 401.667969 " clip-rule="nonzero"/></clipPath><clipPath id="12260f0a8f"><path d="M 107.445312 227.738281 L 165.570312 227.738281 L 165.570312 294.941406 L 107.445312 294.941406 Z M 107.445312 227.738281 " clip-rule="nonzero"/></clipPath><clipPath id="e25c93c9d8"><path d="M 165.570312 261.25 L 107.550781 294.761719 L 107.550781 227.738281 Z M 165.570312 261.25 " clip-rule="nonzero"/></clipPath><clipPath id="db3f29b573"><path d="M 0.519531 0.738281 L 58.570312 0.738281 L 58.570312 67.941406 L 0.519531 67.941406 Z M 0.519531 0.738281 " clip-rule="nonzero"/></clipPath><clipPath id="7c84987fe2"><path d="M 58.570312 34.25 L 0.550781 67.761719 L 0.550781 0.738281 Z M 58.570312 34.25 " clip-rule="nonzero"/></clipPath><clipPath id="eb1de251c2"><rect x="0" width="59" y="0" height="68"/></clipPath><clipPath id="d31d3c2644"><path d="M 172 226 L 233 226 L 233 296 L 172 296 Z M 172 226 " clip-rule="nonzero"/></clipPath><clipPath id="9c6af0039c"><path d="M 202.464844 209.582031 L 262.441406 243.878906 L 232.78125 295.753906 L 172.800781 261.457031 Z M 202.464844 209.582031 " clip-rule="nonzero"/></clipPath><clipPath id="04e37b6b5b"><path d="M 232.402344 226.703125 L 232.683594 295.695312 L 172.800781 261.457031 Z M 232.402344 226.703125 " clip-rule="nonzero"/></clipPath><clipPath id="228f7055f9"><path d="M 0.800781 0.558594 L 60.800781 0.558594 L 60.800781 69.921875 L 0.800781 69.921875 Z M 0.800781 0.558594 " clip-rule="nonzero"/></clipPath><clipPath id="258e174d1a"><path d="M 30.464844 -16.417969 L 90.441406 17.878906 L 60.78125 69.753906 L 0.800781 35.457031 Z M 30.464844 -16.417969 " clip-rule="nonzero"/></clipPath><clipPath id="f746d9e223"><path d="M 60.402344 0.703125 L 60.683594 69.695312 L 0.800781 35.457031 Z M 60.402344 0.703125 " clip-rule="nonzero"/></clipPath><clipPath id="ecfac66acf"><rect x="0" width="61" y="0" height="70"/></clipPath><clipPath id="99c7dfa297"><rect x="0" width="357" y="0" height="375"/></clipPath></defs><g transform="matrix(1, 0, 0, 1, 0, 0)"><g clip-path="url(#99c7dfa297)"><g clip-path="url(#b8a1703706)"><path fill="#ffffff" d="M 64.964844 -31.753906 L 130.429688 6.035156 L 198.566406 45.414062 L 303.996094 106.28125 C 335.597656 124.503906 355.246094 158.535156 355.246094 194.984375 C 355.246094 232.023438 336.097656 265.214844 303.996094 283.773438 C 271.972656 302.335938 233.597656 302.335938 201.492188 283.773438 L 17.140625 177.261719 C -2.003906 166.226562 -13.457031 146.410156 -13.457031 124.339844 C -13.457031 102.265625 -2.003906 82.453125 17.140625 71.332031 L 23.832031 67.488281 L 42.894531 56.449219 L 111.03125 95.828125 L 61.703125 124.339844 L 235.519531 224.664062 C 250.988281 233.613281 264.699219 227.675781 269.882812 224.664062 C 275.066406 221.65625 287.105469 212.792969 287.105469 194.902344 C 287.105469 182.695312 280.5 171.242188 269.882812 165.222656 L 130.429688 84.710938 L 62.289062 45.332031 L 30.9375 27.273438 C 14.632812 17.824219 9.03125 -2.992188 18.480469 -19.296875 C 27.84375 -35.601562 48.660156 -41.203125 64.964844 -31.753906 Z M 64.964844 -31.753906 " fill-opacity="1" fill-rule="nonzero"/></g><g clip-path="url(#2e60362aeb)"><g clip-path="url(#62a17c7c4d)"><g clip-path="url(#7ef52a9423)"><path fill="#ffffff" d="M 37.828125 440.632812 L 37.496094 367.925781 L 37.1875 292.226562 L 36.652344 175.136719 C 36.476562 140.046875 55.226562 107.230469 85.511719 89.558594 C 116.28125 71.609375 153.136719 71.425781 184.121094 89.105469 C 215.0625 106.710938 233.660156 138.59375 233.800781 174.265625 L 234.664062 379.054688 C 234.773438 400.308594 223.863281 419.429688 205.527344 430.128906 C 187.1875 440.828125 165.171875 440.914062 146.65625 430.398438 L 140.21875 426.703125 L 121.808594 416.214844 L 121.5 340.519531 L 169.09375 367.683594 L 168.199219 174.644531 C 168.136719 157.457031 156.558594 148.941406 151.542969 146.09375 C 146.53125 143.246094 133.332031 137.539062 118.46875 146.210938 C 108.328125 152.128906 102.011719 163.167969 102.15625 174.90625 L 102.859375 329.792969 L 103.167969 405.492188 L 103.363281 440.292969 C 103.414062 458.417969 88.835938 473.160156 70.710938 473.214844 C 52.625 473.335938 37.882812 458.753906 37.828125 440.632812 Z M 37.828125 440.632812 " fill-opacity="1" fill-rule="nonzero"/></g></g></g><g clip-path="url(#12260f0a8f)"><g clip-path="url(#e25c93c9d8)"><g transform="matrix(1, 0, 0, 1, 107, 227)"><g clip-path="url(#eb1de251c2)"><g clip-path="url(#db3f29b573)"><g clip-path="url(#7c84987fe2)"><path fill="#ff751f" d="M 58.570312 0.738281 L 58.570312 67.714844 L 0.445312 67.714844 L 0.445312 0.738281 Z M 58.570312 0.738281 " fill-opacity="1" fill-rule="nonzero"/></g></g></g></g></g></g><g clip-path="url(#d31d3c2644)"><g clip-path="url(#9c6af0039c)"><g clip-path="url(#04e37b6b5b)"><g transform="matrix(1, 0, 0, 1, 172, 226)"><g clip-path="url(#ecfac66acf)"><g clip-path="url(#228f7055f9)"><g clip-path="url(#258e174d1a)"><g clip-path="url(#f746d9e223)"><path fill="#ff751f" d="M 30.464844 -16.417969 L 90.441406 17.878906 L 60.78125 69.753906 L 0.800781 35.457031 Z M 30.464844 -16.417969 " fill-opacity="1" fill-rule="nonzero"/></g></g></g></g></g></g></g></g></g></g></svg>