<svg xmlns="http://www.w3.org/2000/svg" xmlns:xlink="http://www.w3.org/1999/xlink" width="500" zoomAndPan="magnify" viewBox="0 0 375 374.999991" height="500" preserveAspectRatio="xMidYMid meet" version="1.0"><defs><clipPath id="5bd58e87f8"><path d="M 88.875 33.175781 L 125.359375 33.175781 L 125.359375 104 L 88.875 104 Z M 88.875 33.175781 " clip-rule="nonzero"/></clipPath><clipPath id="4d54c3ddc3"><path d="M 27 35 L 89 35 L 89 109 L 27 109 Z M 27 35 " clip-rule="nonzero"/></clipPath><clipPath id="7ed02b514b"><path d="M 98.890625 73.402344 L 38.082031 108.878906 L 8.78125 58.65625 L 69.589844 23.175781 Z M 98.890625 73.402344 " clip-rule="nonzero"/></clipPath><clipPath id="351744b112"><path d="M 135.21875 135.667969 L 31.078125 196.425781 L -34.5625 83.910156 L 69.578125 23.15625 Z M 135.21875 135.667969 " clip-rule="nonzero"/></clipPath><clipPath id="fbc5b31506"><path d="M 48.878906 81.976562 L 66.820312 81.976562 L 66.820312 102.722656 L 48.878906 102.722656 Z M 48.878906 81.976562 " clip-rule="nonzero"/></clipPath><clipPath id="9c0a2585a7"><path d="M 66.820312 92.320312 L 48.910156 102.667969 L 48.910156 81.976562 Z M 66.820312 92.320312 " clip-rule="nonzero"/></clipPath><clipPath id="285f685531"><path d="M 0.878906 0.976562 L 18.820312 0.976562 L 18.820312 21.722656 L 0.878906 21.722656 Z M 0.878906 0.976562 " clip-rule="nonzero"/></clipPath><clipPath id="e30c8c445c"><path d="M 18.820312 11.320312 L 0.910156 21.667969 L 0.910156 0.976562 Z M 18.820312 11.320312 " clip-rule="nonzero"/></clipPath><clipPath id="8c286c4b81"><rect x="0" width="19" y="0" height="22"/></clipPath><clipPath id="d6f496893c"><path d="M 69 81 L 88 81 L 88 103 L 69 103 Z M 69 81 " clip-rule="nonzero"/></clipPath><clipPath id="34abc2541c"><path d="M 78.210938 76.371094 L 96.726562 86.960938 L 87.570312 102.972656 L 69.054688 92.386719 Z M 78.210938 76.371094 " clip-rule="nonzero"/></clipPath><clipPath id="555b33cff8"><path d="M 87.453125 81.65625 L 87.539062 102.957031 L 69.054688 92.386719 Z M 87.453125 81.65625 " clip-rule="nonzero"/></clipPath><clipPath id="2d4ffb5f41"><path d="M 0 0.441406 L 18.601562 0.441406 L 18.601562 22 L 0 22 Z M 0 0.441406 " clip-rule="nonzero"/></clipPath><clipPath id="87b5d70551"><path d="M 9.210938 -4.628906 L 27.726562 5.960938 L 18.570312 21.972656 L 0.0546875 11.386719 Z M 9.210938 -4.628906 " clip-rule="nonzero"/></clipPath><clipPath id="8f6811f48e"><path d="M 18.453125 0.65625 L 18.539062 21.957031 L 0.0546875 11.386719 Z M 18.453125 0.65625 " clip-rule="nonzero"/></clipPath><clipPath id="9d4abaeb0d"><rect x="0" width="19" y="0" height="22"/></clipPath><clipPath id="7da16e8c8a"><rect x="0" width="126" y="0" height="169"/></clipPath></defs><g transform="matrix(1, 0, 0, 1, 0, 118)"><g clip-path="url(#7da16e8c8a)"><g clip-path="url(#5bd58e87f8)"><path fill="#000000" d="M 35.765625 1.871094 L 55.972656 13.539062 L 77.007812 25.691406 L 109.550781 44.484375 C 119.308594 50.109375 125.375 60.613281 125.375 71.867188 C 125.375 83.300781 119.464844 93.546875 109.550781 99.277344 C 99.667969 105.003906 87.820312 105.003906 77.910156 99.277344 L 21 66.394531 C 15.089844 62.988281 11.554688 56.871094 11.554688 50.058594 C 11.554688 43.242188 15.089844 37.125 21 33.695312 L 23.066406 32.507812 L 28.949219 29.101562 L 49.984375 41.257812 L 34.757812 50.058594 L 88.414062 81.027344 C 93.1875 83.789062 97.421875 81.957031 99.023438 81.027344 C 100.621094 80.097656 104.339844 77.363281 104.339844 71.839844 C 104.339844 68.070312 102.300781 64.535156 99.023438 62.679688 L 55.972656 37.824219 L 34.9375 25.667969 L 25.257812 20.09375 C 20.226562 17.175781 18.496094 10.75 21.414062 5.71875 C 24.304688 0.683594 30.730469 -1.046875 35.765625 1.871094 Z M 35.765625 1.871094 " fill-opacity="1" fill-rule="nonzero"/></g><g clip-path="url(#4d54c3ddc3)"><g clip-path="url(#7ed02b514b)"><g clip-path="url(#351744b112)"><path fill="#000000" d="M 27.386719 147.695312 L 27.285156 125.253906 L 27.1875 101.886719 L 27.023438 65.738281 C 26.96875 54.90625 32.757812 44.773438 42.105469 39.320312 C 51.605469 33.78125 62.984375 33.722656 72.546875 39.179688 C 82.097656 44.617188 87.839844 54.457031 87.882812 65.46875 L 88.148438 128.6875 C 88.183594 135.25 84.816406 141.152344 79.15625 144.453125 C 73.492188 147.757812 66.699219 147.785156 60.980469 144.539062 L 58.996094 143.398438 L 53.3125 140.160156 L 53.214844 116.792969 L 67.910156 125.175781 L 67.632812 65.585938 C 67.613281 60.28125 64.039062 57.652344 62.492188 56.773438 C 60.945312 55.894531 56.871094 54.132812 52.28125 56.808594 C 49.148438 58.636719 47.199219 62.042969 47.246094 65.667969 L 47.460938 113.480469 L 47.558594 136.847656 L 47.617188 147.59375 C 47.632812 153.1875 43.132812 157.738281 37.539062 157.753906 C 31.957031 157.792969 27.402344 153.292969 27.386719 147.695312 Z M 27.386719 147.695312 " fill-opacity="1" fill-rule="nonzero"/></g></g></g><g clip-path="url(#fbc5b31506)"><g clip-path="url(#9c0a2585a7)"><g transform="matrix(1, 0, 0, 1, 48, 81)"><g clip-path="url(#8c286c4b81)"><g clip-path="url(#285f685531)"><g clip-path="url(#e30c8c445c)"><path fill="#ff751f" d="M 18.820312 0.976562 L 18.820312 21.652344 L 0.878906 21.652344 L 0.878906 0.976562 Z M 18.820312 0.976562 " fill-opacity="1" fill-rule="nonzero"/></g></g></g></g></g></g><g clip-path="url(#d6f496893c)"><g clip-path="url(#34abc2541c)"><g clip-path="url(#555b33cff8)"><g transform="matrix(1, 0, 0, 1, 69, 81)"><g clip-path="url(#9d4abaeb0d)"><g clip-path="url(#2d4ffb5f41)"><g clip-path="url(#87b5d70551)"><g clip-path="url(#8f6811f48e)"><path fill="#ff751f" d="M 9.210938 -4.628906 L 27.726562 5.960938 L 18.570312 21.972656 L 0.0546875 11.386719 Z M 9.210938 -4.628906 " fill-opacity="1" fill-rule="nonzero"/></g></g></g></g></g></g></g></g></g></g></svg>