<svg xmlns="http://www.w3.org/2000/svg" xmlns:xlink="http://www.w3.org/1999/xlink" width="500" zoomAndPan="magnify" viewBox="0 0 375 374.999991" height="500" preserveAspectRatio="xMidYMid meet" version="1.0"><defs><clipPath id="64018b4844"><path d="M 235.554688 73.125 L 366.480469 73.125 L 366.480469 326 L 235.554688 326 Z M 235.554688 73.125 " clip-rule="nonzero"/></clipPath><clipPath id="983d053547"><path d="M 13 80 L 233 80 L 233 345 L 13 345 Z M 13 80 " clip-rule="nonzero"/></clipPath><clipPath id="f086163b68"><path d="M 271.496094 217.472656 L 53.269531 344.785156 L -51.878906 164.550781 L 166.347656 37.238281 Z M 271.496094 217.472656 " clip-rule="nonzero"/></clipPath><clipPath id="1bf98d067a"><path d="M 401.855469 440.925781 L 28.132812 658.953125 L -207.421875 255.191406 L 166.300781 37.164062 Z M 401.855469 440.925781 " clip-rule="nonzero"/></clipPath><clipPath id="31d4a8e2b6"><path d="M 92.015625 248.246094 L 156.402344 248.246094 L 156.402344 322.695312 L 92.015625 322.695312 Z M 92.015625 248.246094 " clip-rule="nonzero"/></clipPath><clipPath id="8bcf31c3a0"><path d="M 156.402344 285.371094 L 92.128906 322.496094 L 92.128906 248.246094 Z M 156.402344 285.371094 " clip-rule="nonzero"/></clipPath><clipPath id="1e5fa82a68"><path d="M 0.015625 0.246094 L 64.402344 0.246094 L 64.402344 74.558594 L 0.015625 74.558594 Z M 0.015625 0.246094 " clip-rule="nonzero"/></clipPath><clipPath id="7fa5f70923"><path d="M 64.402344 37.371094 L 0.128906 74.496094 L 0.128906 0.246094 Z M 64.402344 37.371094 " clip-rule="nonzero"/></clipPath><clipPath id="a7a3a2b4da"><rect x="0" width="65" y="0" height="75"/></clipPath><clipPath id="a30c6d3e76"><path d="M 164 247 L 231 247 L 231 324 L 164 324 Z M 164 247 " clip-rule="nonzero"/></clipPath><clipPath id="9b21dbaa55"><path d="M 197.273438 228.132812 L 263.71875 266.125 L 230.859375 323.59375 L 164.414062 285.597656 Z M 197.273438 228.132812 " clip-rule="nonzero"/></clipPath><clipPath id="a80141288e"><path d="M 230.441406 247.097656 L 230.75 323.53125 L 164.414062 285.597656 Z M 230.441406 247.097656 " clip-rule="nonzero"/></clipPath><clipPath id="03c7848722"><path d="M 0.398438 0 L 66.878906 0 L 66.878906 76.761719 L 0.398438 76.761719 Z M 0.398438 0 " clip-rule="nonzero"/></clipPath><clipPath id="1a26b04996"><path d="M 33.273438 -18.867188 L 99.71875 19.125 L 66.859375 76.59375 L 0.414062 38.597656 Z M 33.273438 -18.867188 " clip-rule="nonzero"/></clipPath><clipPath id="d2de87decc"><path d="M 66.441406 0.0976562 L 66.75 76.53125 L 0.414062 38.597656 Z M 66.441406 0.0976562 " clip-rule="nonzero"/></clipPath><clipPath id="8f1e8802a2"><rect x="0" width="67" y="0" height="77"/></clipPath><clipPath id="b7a010b095"><rect x="0" width="368" y="0" height="375"/></clipPath></defs><g transform="matrix(1, 0, 0, 1, 0, 0)"><g clip-path="url(#b7a010b095)"><g clip-path="url(#64018b4844)"><path fill="#000000" d="M 44.953125 -39.21875 L 117.472656 2.644531 L 192.957031 46.265625 L 309.75 113.695312 C 344.761719 133.886719 366.527344 171.582031 366.527344 211.960938 C 366.527344 252.992188 345.316406 289.761719 309.75 310.324219 C 274.277344 330.886719 231.765625 330.886719 196.199219 310.324219 L -8.027344 192.328125 C -29.234375 180.101562 -41.925781 158.152344 -41.925781 133.699219 C -41.925781 109.25 -29.234375 87.296875 -8.027344 74.980469 L -0.617188 70.71875 L 20.5 58.492188 L 95.984375 102.117188 L 41.339844 133.699219 L 233.894531 244.84375 C 251.03125 254.753906 266.21875 248.175781 271.960938 244.84375 C 277.703125 241.507812 291.042969 231.691406 291.042969 211.871094 C 291.042969 198.347656 283.722656 185.660156 271.960938 178.992188 L 117.472656 89.796875 L 41.988281 46.175781 L 7.257812 26.167969 C -10.804688 15.703125 -17.007812 -7.359375 -6.542969 -25.417969 C 3.828125 -43.480469 26.890625 -49.6875 44.953125 -39.21875 Z M 44.953125 -39.21875 " fill-opacity="1" fill-rule="nonzero"/></g><g clip-path="url(#983d053547)"><g clip-path="url(#f086163b68)"><g clip-path="url(#1bf98d067a)"><path fill="#000000" d="M 14.890625 484.089844 L 14.523438 403.546875 L 14.179688 319.6875 L 13.589844 189.972656 C 13.394531 151.101562 34.164062 114.746094 67.714844 95.171875 C 101.800781 75.285156 142.632812 75.085938 176.953125 94.667969 C 211.230469 114.171875 231.835938 149.492188 231.992188 189.007812 L 232.945312 415.875 C 233.066406 439.421875 220.980469 460.601562 200.664062 472.453125 C 180.351562 484.304688 155.964844 484.402344 135.449219 472.753906 L 128.316406 468.660156 L 107.925781 457.042969 L 107.582031 373.183594 L 160.308594 403.277344 L 159.316406 189.425781 C 159.246094 170.386719 146.417969 160.957031 140.867188 157.800781 C 135.3125 154.648438 120.691406 148.324219 104.222656 157.929688 C 92.988281 164.484375 85.992188 176.714844 86.15625 189.71875 L 86.933594 361.304688 L 87.277344 445.160156 L 87.488281 483.714844 C 87.546875 503.792969 71.394531 520.125 51.316406 520.183594 C 31.285156 520.320312 14.949219 504.167969 14.890625 484.089844 Z M 14.890625 484.089844 " fill-opacity="1" fill-rule="nonzero"/></g></g></g><g clip-path="url(#31d4a8e2b6)"><g clip-path="url(#8bcf31c3a0)"><g transform="matrix(1, 0, 0, 1, 92, 248)"><g clip-path="url(#a7a3a2b4da)"><g clip-path="url(#1e5fa82a68)"><g clip-path="url(#7fa5f70923)"><path fill="#ff751f" d="M 64.402344 0.246094 L 64.402344 74.445312 L 0.015625 74.445312 L 0.015625 0.246094 Z M 64.402344 0.246094 " fill-opacity="1" fill-rule="nonzero"/></g></g></g></g></g></g><g clip-path="url(#a30c6d3e76)"><g clip-path="url(#9b21dbaa55)"><g clip-path="url(#a80141288e)"><g transform="matrix(1, 0, 0, 1, 164, 247)"><g clip-path="url(#8f1e8802a2)"><g clip-path="url(#03c7848722)"><g clip-path="url(#1a26b04996)"><g clip-path="url(#d2de87decc)"><path fill="#ff751f" d="M 33.273438 -18.867188 L 99.71875 19.125 L 66.859375 76.59375 L 0.414062 38.597656 Z M 33.273438 -18.867188 " fill-opacity="1" fill-rule="nonzero"/></g></g></g></g></g></g></g></g></g></g></svg>