<svg xmlns="http://www.w3.org/2000/svg" xmlns:xlink="http://www.w3.org/1999/xlink" width="500" zoomAndPan="magnify" viewBox="0 0 375 374.999991" height="500" preserveAspectRatio="xMidYMid meet" version="1.0"><defs><clipPath id="79fedb6129"><path d="M 223.25 79.410156 L 311.128906 79.410156 L 311.128906 249 L 223.25 249 Z M 223.25 79.410156 " clip-rule="nonzero"/></clipPath><clipPath id="bce2870591"><path d="M 74 84 L 222 84 L 222 262 L 74 262 Z M 74 84 " clip-rule="nonzero"/></clipPath><clipPath id="e54ccd0a8f"><path d="M 247.375 176.300781 L 100.902344 261.75 L 30.324219 140.777344 L 176.800781 55.324219 Z M 247.375 176.300781 " clip-rule="nonzero"/></clipPath><clipPath id="d20b6b144d"><path d="M 334.875 326.28125 L 84.03125 472.621094 L -74.074219 201.613281 L 176.769531 55.273438 Z M 334.875 326.28125 " clip-rule="nonzero"/></clipPath><clipPath id="659014b415"><path d="M 126.90625 196.953125 L 170.125 196.953125 L 170.125 246.925781 L 126.90625 246.925781 Z M 126.90625 196.953125 " clip-rule="nonzero"/></clipPath><clipPath id="bc1bc8e114"><path d="M 170.125 221.871094 L 126.984375 246.789062 L 126.984375 196.953125 Z M 170.125 221.871094 " clip-rule="nonzero"/></clipPath><clipPath id="2c4a0b6126"><path d="M 0.960938 0.953125 L 44.125 0.953125 L 44.125 50.921875 L 0.960938 50.921875 Z M 0.960938 0.953125 " clip-rule="nonzero"/></clipPath><clipPath id="e99af1c139"><path d="M 44.125 25.871094 L 0.984375 50.789062 L 0.984375 0.953125 Z M 44.125 25.871094 " clip-rule="nonzero"/></clipPath><clipPath id="24bb475eeb"><rect x="0" width="45" y="0" height="51"/></clipPath><clipPath id="5ccae61178"><path d="M 175 196 L 221 196 L 221 248 L 175 248 Z M 175 196 " clip-rule="nonzero"/></clipPath><clipPath id="aed6a7f175"><path d="M 197.558594 183.453125 L 242.15625 208.953125 L 220.101562 247.527344 L 175.503906 222.023438 Z M 197.558594 183.453125 " clip-rule="nonzero"/></clipPath><clipPath id="437d864065"><path d="M 219.820312 196.183594 L 220.027344 247.484375 L 175.503906 222.023438 Z M 219.820312 196.183594 " clip-rule="nonzero"/></clipPath><clipPath id="5be00781ff"><path d="M 0.441406 0.0390625 L 45.078125 0.0390625 L 45.078125 51.640625 L 0.441406 51.640625 Z M 0.441406 0.0390625 " clip-rule="nonzero"/></clipPath><clipPath id="d538f70832"><path d="M 22.558594 -12.546875 L 67.15625 12.953125 L 45.101562 51.527344 L 0.503906 26.023438 Z M 22.558594 -12.546875 " clip-rule="nonzero"/></clipPath><clipPath id="e6a25fea27"><path d="M 44.820312 0.183594 L 45.027344 51.484375 L 0.503906 26.023438 Z M 44.820312 0.183594 " clip-rule="nonzero"/></clipPath><clipPath id="3b06b5a750"><rect x="0" width="46" y="0" height="52"/></clipPath><clipPath id="7dca1775c8"><rect x="0" width="312" y="0" height="320"/></clipPath></defs><g transform="matrix(1, 0, 0, 1, 0, 55)"><g clip-path="url(#7dca1775c8)"><g clip-path="url(#79fedb6129)"><path fill="#000000" d="M 95.320312 4.003906 L 143.996094 32.105469 L 194.660156 61.382812 L 273.054688 106.640625 C 296.550781 120.195312 311.160156 145.496094 311.160156 172.601562 C 311.160156 200.140625 296.925781 224.820312 273.054688 238.621094 C 249.242188 252.421875 220.710938 252.421875 196.835938 238.621094 L 59.761719 159.421875 C 45.523438 151.214844 37.007812 136.480469 37.007812 120.070312 C 37.007812 103.65625 45.523438 88.925781 59.761719 80.65625 L 64.734375 77.796875 L 78.910156 69.589844 L 129.574219 98.871094 L 92.894531 120.070312 L 222.140625 194.667969 C 233.640625 201.320312 243.835938 196.90625 247.6875 194.667969 C 251.542969 192.429688 260.496094 185.839844 260.496094 172.539062 C 260.496094 163.460938 255.585938 154.945312 247.6875 150.46875 L 143.996094 90.601562 L 93.332031 61.324219 L 70.019531 47.894531 C 57.894531 40.871094 53.730469 25.390625 60.753906 13.269531 C 67.71875 1.144531 83.199219 -3.019531 95.320312 4.003906 Z M 95.320312 4.003906 " fill-opacity="1" fill-rule="nonzero"/></g><g clip-path="url(#bce2870591)"><g clip-path="url(#e54ccd0a8f)"><g clip-path="url(#d20b6b144d)"><path fill="#000000" d="M 75.144531 355.253906 L 74.894531 301.191406 L 74.664062 244.90625 L 74.269531 157.839844 C 74.136719 131.75 88.078125 107.347656 110.597656 94.210938 C 133.476562 80.863281 160.882812 80.726562 183.917969 93.871094 C 206.925781 106.960938 220.757812 130.667969 220.859375 157.191406 L 221.5 309.464844 C 221.582031 325.269531 213.46875 339.488281 199.835938 347.441406 C 186.199219 355.398438 169.832031 355.464844 156.0625 347.644531 L 151.273438 344.898438 L 137.585938 337.097656 L 137.355469 280.8125 L 172.746094 301.011719 L 172.082031 157.472656 C 172.035156 144.695312 163.425781 138.363281 159.695312 136.246094 C 155.96875 134.128906 146.15625 129.886719 135.101562 136.332031 C 127.5625 140.734375 122.867188 148.941406 122.976562 157.671875 L 123.496094 272.835938 L 123.726562 329.125 L 123.871094 355 C 123.910156 368.476562 113.070312 379.441406 99.59375 379.480469 C 86.144531 379.570312 75.183594 368.730469 75.144531 355.253906 Z M 75.144531 355.253906 " fill-opacity="1" fill-rule="nonzero"/></g></g></g><g clip-path="url(#659014b415)"><g clip-path="url(#bc1bc8e114)"><g transform="matrix(1, 0, 0, 1, 126, 196)"><g clip-path="url(#24bb475eeb)"><g clip-path="url(#2c4a0b6126)"><g clip-path="url(#e99af1c139)"><path fill="#ff751f" d="M 44.125 0.953125 L 44.125 50.753906 L 0.90625 50.753906 L 0.90625 0.953125 Z M 44.125 0.953125 " fill-opacity="1" fill-rule="nonzero"/></g></g></g></g></g></g><g clip-path="url(#5ccae61178)"><g clip-path="url(#aed6a7f175)"><g clip-path="url(#437d864065)"><g transform="matrix(1, 0, 0, 1, 175, 196)"><g clip-path="url(#3b06b5a750)"><g clip-path="url(#5be00781ff)"><g clip-path="url(#d538f70832)"><g clip-path="url(#e6a25fea27)"><path fill="#ff751f" d="M 22.558594 -12.546875 L 67.15625 12.953125 L 45.101562 51.527344 L 0.503906 26.023438 Z M 22.558594 -12.546875 " fill-opacity="1" fill-rule="nonzero"/></g></g></g></g></g></g></g></g></g></g></svg>